<?xml version="1.0" encoding="UTF-8"?>
<svg version="1.1" viewBox="0 0 128 128" xmlns="http://www.w3.org/2000/svg">
<path style="fill:#fff" d="M14.86,76.68h21.56c-.32-2.11-.55-4.23-.71-6.34s-.24-4.23-.24-6.34.08-4.23.24-6.34c.16-2.11.4-4.23.71-6.34H14.86c-.53,2.11-.92,4.23-1.19,6.34-.26,2.11-.4,4.23-.4,6.34s.13,4.23.4,6.34.66,4.23,1.19,6.34ZM20.25,38.64h18.7c.95-3.91,2.14-7.74,3.57-11.49s3.09-7.42,4.99-11.02c-5.81,1.9-11.04,4.78-15.69,8.64-4.65,3.86-8.51,8.48-11.57,13.87ZM47.52,111.87c-1.9-3.59-3.57-7.26-4.99-11.02-1.43-3.75-2.62-7.58-3.57-11.49h-18.7c3.06,5.39,6.92,10.01,11.57,13.87,4.65,3.86,9.88,6.74,15.69,8.64ZM51.95,38.64h24.09c-1.27-4.54-2.91-8.9-4.91-13.08s-4.39-8.16-7.13-11.97c-2.75,3.8-5.12,7.79-7.13,11.97s-3.65,8.53-4.91,13.08ZM89.04,38.64h18.7c-3.06-5.39-6.92-10.01-11.57-13.87s-9.88-6.74-15.69-8.64c1.9,3.59,3.57,7.26,4.99,11.02s2.62,7.58,3.57,11.49ZM64,127.4c-8.77,0-17.01-1.66-24.73-4.99-7.71-3.33-14.42-7.85-20.13-13.55-5.71-5.71-10.22-12.42-13.55-20.13S.6,72.77.6,64s1.66-17.01,4.99-24.73c3.33-7.71,7.85-14.42,13.55-20.13,5.71-5.71,12.42-10.22,20.13-13.55S55.23.6,64,.6c15.43,0,28.87,4.83,40.34,14.5s18.68,21.74,21.64,36.22H49.1c-.32,2.11-.55,4.23-.71,6.34-.16,2.11-.24,4.23-.24,6.34s.08,4.23.24,6.34.4,4.23.71,6.34h27.58v12.68h-24.73c1.27,4.54,2.91,8.9,4.91,13.08,2.01,4.17,4.39,8.16,7.13,11.97,1.9,0,3.78-.11,5.63-.32,1.85-.21,3.72-.42,5.63-.63l2.69,12.36c-2.43.53-4.76.92-6.97,1.19s-4.54.4-6.97.4ZM104.66,125.42c-1.32-1.32-1.98-2.88-1.98-4.68s.66-3.35,1.98-4.68,2.88-1.98,4.68-1.98,3.35.66,4.68,1.98,1.98,2.88,1.98,4.68-.66,3.35-1.98,4.68-2.88,1.98-4.68,1.98-3.35-.66-4.68-1.98ZM104.58,107.11c0-4.86.4-8.19,1.19-9.99s3.04-4.28,6.74-7.45c1.48-1.48,2.75-2.93,3.8-4.36s1.59-3.04,1.59-4.83c0-1.9-.71-3.59-2.14-5.07s-3.57-2.22-6.42-2.22-5.02.82-6.5,2.46-2.48,3.35-3.01,5.15l-8.56-3.49c1.27-3.7,3.43-6.84,6.5-9.43,3.06-2.59,6.92-3.88,11.57-3.88,4.97,0,9.22,1.35,12.76,4.04,3.54,2.69,5.31,6.74,5.31,12.13,0,2.54-.63,4.91-1.9,7.13s-2.85,4.28-4.76,6.18c-3.17,3.17-5.07,5.39-5.71,6.66s-.95,3.59-.95,6.97h-9.51Z"/>
</svg>