<?xml version="1.0" encoding="UTF-8"?>
<svg version="1.1" viewBox="0 0 128 128" xmlns="http://www.w3.org/2000/svg">
<path style="fill:#fff" d="M120.03,54.01c-3.28-20.45-17.48-37.25-36.44-44.23,6.48,11.06,11.13,25.7,11.68,37.94h-10.06c-.86-7.78-5.88-14.3-12.8-17.27V3.59h-16.83v26.86c-6.92,2.97-11.95,9.49-12.8,17.27h-10.06c.54-12.24,5.2-26.88,11.68-37.94C25.45,16.76,11.24,33.56,7.97,54.01H.6v19.98h7.74c4.03,20.6,19.16,37.23,38.95,43.32-9.79-17.48-14.25-48.07-14.64-64.87h10.13c.86,7.78,5.88,14.3,12.8,17.27v54.71h16.83v-54.71c6.92-2.97,11.95-9.49,12.8-17.27h10.13c-.39,16.8-4.85,47.39-14.64,64.87,19.79-6.09,34.92-22.71,38.95-43.32h7.74v-19.98h-7.37ZM64,65.18c-8.34,0-15.1-6.76-15.1-15.1s6.76-15.1,15.1-15.1,15.1,6.76,15.1,15.1-6.76,15.1-15.1,15.1Z"/>
</svg>