<?xml version="1.0" encoding="UTF-8"?>
<svg version="1.1" viewBox="0 0 128 128" xmlns="http://www.w3.org/2000/svg">
<path style="fill:#fff" d="M54.04,35.49c-.58-6.58,6.04-7.38,6.49-11.74,0,0-1.21-13.8-1.21-13.8-.17-1.97-2.04-3.35-3.97-2.92-22.08,4.82-36.72,27.94-36.72,55.03-2.14,26.87,11.55,43.41,23.41,63.72,1.3,3.36,11.67.35,14.09.78,1.97-.15,3.36-1.98,2.97-3.92-3.14-5.78-5.63-9.81-4.77-15.15.91-8.86,4.46-22.84,7.42-27.88.32-.55.49-1.17.47-1.81l-1.19-30.69c-1.26-4.43-7.35-4.57-7-11.62ZM55.14,73.49c-.03,6.14-13.23,10.9-20.41,7.96-7.19-2.94-10.62-11.12-8.46-20.43,4.79-15.48,30.58,1.42,28.87,12.46Z"/>
<path style="fill:#fff" d="M68.73,35.33c0-2.27-2.12-4.12-4.73-4.12s-4.73,1.84-4.73,4.12,2.12,4.12,4.73,4.12,4.73-1.84,4.73-4.12Z"/>
<ellipse style="fill:#fff" cx="64" cy="3.47" rx="3.62" ry="2.87"/>
<path style="fill:#fff" d="M109.37,62.07c0-27.1-14.64-50.22-36.72-55.03-1.93-.42-3.8.95-3.97,2.92,0,0-1.2,13.8-1.21,13.8.45,4.36,7.07,5.16,6.49,11.74.35,7.05-5.74,7.19-7,11.62l-1.19,30.69c-.02.64.14,1.26.47,1.81,2.95,5.04,6.51,19.02,7.42,27.88.86,5.34-1.63,9.37-4.77,15.15-.39,1.93,1,3.77,2.97,3.92,2.42-.42,12.79,2.58,14.09-.78,11.86-20.31,25.55-36.85,23.41-63.72ZM93.28,81.45c-7.19,2.94-20.38-1.82-20.41-7.96-1.7-11.04,24.08-27.94,28.87-12.46,2.16,9.3-1.27,17.48-8.46,20.43Z"/>
</svg>