<?xml version="1.0" encoding="UTF-8"?>
<svg version="1.1" viewBox="0 0 128 128" xmlns="http://www.w3.org/2000/svg">
<path style="fill:#fff" d="m19.9 127c-3.46 0-6.43-1.23-8.9-3.7s-3.7-5.43-3.7-8.9v-88.2c0-3.46 1.23-6.43 3.7-8.9s5.43-3.7 8.9-3.7h26.46c1.36-3.78 3.65-6.82 6.85-9.13s6.8-3.47 10.79-3.47 7.59 1.15 10.79 3.47c3.2 2.31 5.49 5.35 6.85 9.13h26.46c3.47 0 6.43 1.23 8.9 3.7s3.7 5.43 3.7 8.9v88.2c0 3.47-1.23 6.43-3.7 8.9s-5.43 3.7-8.9 3.7h-88.2zm12.6-25.2h44.1v-12.6h-44.1v12.6zm0-25.2h63v-12.6h-63v12.6zm0-25.2h63v-12.6h-63v12.6zm34.89-31.26c0.89-0.89 1.34-2.02 1.34-3.39s-0.45-2.49-1.34-3.39-2.02-1.34-3.39-1.34-2.49 0.45-3.39 1.34-1.34 2.02-1.34 3.39 0.45 2.49 1.34 3.39 2.02 1.34 3.39 1.34 2.49-0.45 3.39-1.34z"/>
</svg>