<?xml version="1.0" encoding="UTF-8"?>
<svg version="1.1" viewBox="0 0 128 128" xmlns="http://www.w3.org/2000/svg">
<path style="fill:#fff" d="m32.3 95.7h63.4v-12.68h-63.4v12.68zm31.7-19.02 25.36-25.36-8.88-8.88-10.14 9.83v-26.31h-12.68v26.31l-10.14-9.83-8.88 8.88 25.36 25.36zm0 50.72c-8.77 0-17.01-1.66-24.73-4.99-7.71-3.33-14.42-7.85-20.13-13.55-5.71-5.71-10.22-12.42-13.55-20.13s-4.99-15.96-4.99-24.73 1.66-17.01 4.99-24.73 7.85-14.42 13.55-20.13c5.71-5.71 12.42-10.22 20.13-13.55s15.96-4.99 24.73-4.99 17.01 1.66 24.73 4.99 14.42 7.85 20.13 13.55c5.71 5.71 10.22 12.42 13.55 20.13s4.99 15.96 4.99 24.73-1.66 17.01-4.99 24.73c-3.33 7.71-7.85 14.42-13.55 20.13-5.71 5.71-12.42 10.22-20.13 13.55s-15.96 4.99-24.73 4.99z"/>
</svg>