<?xml version="1.0" encoding="utf-8"?>
<!-- Generator: Adobe Illustrator 27.8.1, SVG Export Plug-In . SVG Version: 6.00 Build 0)  -->
<svg version="1.1" id="Layer_1" xmlns="http://www.w3.org/2000/svg" xmlns:xlink="http://www.w3.org/1999/xlink" x="0px" y="0px"
	 viewBox="0 0 75.4 71.7" style="enable-background:new 0 0 75.4 71.7;" xml:space="preserve">
<style type="text/css">
	.st0{fill:#FFFFFF;}
	.st1{fill-rule:evenodd;clip-rule:evenodd;}
</style>
<path class="st0" d="M73.8,1.6c-1-1-2.4-1.6-3.9-1.6H5.5C4,0,2.6,0.6,1.6,1.6C0.6,2.6,0,4,0,5.5v60.8c0,1.5,0.6,2.9,1.6,3.9
	c1,1,2.4,1.6,3.9,1.6h64.4c1.5,0,2.8-0.6,3.9-1.6c1-1,1.6-2.4,1.6-3.9V5.5C75.4,4,74.8,2.6,73.8,1.6"/>
<path class="st1" d="M22.5,46.1h-8.8c-0.7,0-1.2,0.6-1.2,1.2c0,0,0,0,0,0c0,0,0,0,0,0h0v6.3h0l0,0c0,0.7,0.6,1.2,1.2,1.2h8.8V59
	H11.5v0c-1.8,0-3.2-1.4-3.2-3.2c0,0,0,0,0,0V45.1c0-1.8,1.5-3.2,3.2-3.2h10.9V46.1z"/>
<path class="st1" d="M25.6,34.4c0,1.8-1.5,3.3-3.3,3.3c0,0,0,0,0,0H8.3v-4.2h11.9c0.7,0,1.3-0.6,1.3-1.3v-14c0-0.7-0.6-1.3-1.3-1.3
	h-6.4c-0.7,0-1.3,0.6-1.3,1.3c0,0,0,0,0,0v6.4c0,0.7,0.6,1.3,1.3,1.3c0,0,0,0,0,0h5.1v4.2h-7.3c-1.8,0-3.3-1.5-3.3-3.3c0,0,0,0,0,0
	V16c0-1.8,1.5-3.3,3.3-3.3c0,0,0,0,0,0h10.8c1.8,0,3.3,1.5,3.3,3.3V34.4z"/>
<path class="st1" d="M67.1,59h-4.2V46.1H60c-0.7,0-1.2,0.6-1.2,1.2c0,0,0,0,0,0V59h-4.2V46.1h-2.9c-0.7,0-1.2,0.6-1.2,1.2
	c0,0,0,0,0,0V59h-4.2V45.1c0-1.8,1.5-3.2,3.2-3.2h17.6L67.1,59z"/>
<path class="st1" d="M67.1,34.4c0,1.8-1.5,3.3-3.3,3.3c0,0,0,0,0,0H49.8v-4.2h11.9c0.7,0,1.3-0.6,1.3-1.3v-14c0-0.7-0.6-1.3-1.3-1.3
	c0,0,0,0,0,0h-6.4c-0.7,0-1.3,0.6-1.3,1.3v6.4c0,0.7,0.6,1.3,1.3,1.3h5.1v4.2H53c-1.8,0-3.3-1.5-3.3-3.3c0,0,0,0,0,0V16
	c0-1.8,1.5-3.3,3.3-3.3c0,0,0,0,0,0h10.8c1.8,0,3.3,1.5,3.3,3.3L67.1,34.4z"/>
<path class="st1" d="M42.1,18.2v6.4c0,0.7-0.5,1.3-1.2,1.3c0,0,0,0,0,0h-6.4c-0.7,0-1.3-0.6-1.3-1.3c0,0,0,0,0,0v-6.4
	c0-0.7,0.6-1.3,1.3-1.3h6.4C41.6,17,42.1,17.5,42.1,18.2C42.1,18.2,42.1,18.2,42.1,18.2L42.1,18.2z M43.1,12.7H32.3
	c-1.8,0-3.3,1.5-3.3,3.3c0,0,0,0,0,0v10.8c0,1.8,1.5,3.3,3.3,3.3c0,0,0,0,0,0h10.8c1.8,0,3.3-1.5,3.3-3.3V16
	C46.4,14.2,44.9,12.7,43.1,12.7"/>
<path class="st1" d="M38.7,47.3v6.3c0,0.7-0.6,1.2-1.2,1.2c0,0,0,0,0,0c0,0,0,0,0,0v0h-6.3v0c0,0,0,0,0,0c-0.7,0-1.2-0.6-1.2-1.2
	c0,0,0,0,0,0v-6.3c0-0.7,0.6-1.2,1.2-1.2h6.3C38.2,46.1,38.7,46.6,38.7,47.3C38.7,47.3,38.7,47.3,38.7,47.3L38.7,47.3z M39.7,41.9
	H29c-1.8,0-3.2,1.4-3.2,3.2v10.6c0,1.8,1.4,3.2,3.2,3.2c0,0,0,0,0,0h10.6c1.8,0,3.2-1.4,3.2-3.2V45.1C42.9,43.3,41.5,41.9,39.7,41.9
	"/>
<path d="M73.8,66.3c0,1.1-0.4,2-1.1,2.7c-0.7,0.7-1.7,1.1-2.7,1.1H5.5c-2.1,0-3.9-1.7-3.9-3.9c0,0,0,0,0,0V5.5c0-1,0.4-2,1.1-2.7
	C3.5,2,4.5,1.6,5.5,1.6h64.4c1,0,2,0.4,2.7,1.1c0.7,0.7,1.1,1.7,1.1,2.7V66.3z M73.8,1.6c-1-1-2.4-1.6-3.9-1.6H5.5
	C4,0,2.6,0.6,1.6,1.6C0.6,2.6,0,4,0,5.5v60.8c0,1.5,0.6,2.9,1.6,3.9c1,1,2.4,1.6,3.9,1.6h64.4c1.5,0,2.8-0.6,3.9-1.6
	c1-1,1.6-2.4,1.6-3.9V5.5C75.4,4,74.8,2.6,73.8,1.6"/>
</svg>
