<?xml version="1.0" encoding="utf-8"?>
<!-- Generator: Adobe Illustrator 27.8.1, SVG Export Plug-In . SVG Version: 6.00 Build 0)  -->
<svg version="1.1" id="Layer_1" xmlns="http://www.w3.org/2000/svg" xmlns:xlink="http://www.w3.org/1999/xlink" x="0px" y="0px"
	 viewBox="0 0 300 300" style="enable-background:new 0 0 300 300;" xml:space="preserve">
<style type="text/css">
	.st0{fill:#3DDB85;}
</style>
<g id="Layer_1_00000093136957086629959370000006350227350065292968_">
	<g>
		<g>
			<path class="st0" d="M219.1,257.2c-6.9,0-12.5-5.6-12.5-12.5s5.6-12.5,12.5-12.5s12.5,5.6,12.5,12.5
				C231.5,251.6,225.9,257.2,219.1,257.2 M80.9,257.2c-6.9,0-12.5-5.6-12.5-12.5s5.6-12.5,12.5-12.5s12.5,5.6,12.5,12.5
				S87.8,257.2,80.9,257.2 M223.5,182l24.9-43.2c1.5-2.5,0.6-5.7-1.9-7.1c-2.5-1.5-5.7-0.6-7.1,1.9l-25.3,43.8
				c-19.3-8.8-41-13.7-64.3-13.7s-44.9,4.9-64.3,13.7l-25.3-43.8c-1.5-2.5-4.6-3.3-7.1-1.9c-2.5,1.5-3.3,4.6-1.9,7.1L76.3,182
				C33.6,205.3,4.2,248.7,0,300h300C295.7,248.7,266.4,205.3,223.5,182"/>
		</g>
	</g>
</g>
<g id="Layer_2_00000026138505258716897840000012799654884438417546_">
</g>
</svg>
