<?xml version="1.0" encoding="utf-8"?>
<!-- Generator: Adobe Illustrator 27.8.1, SVG Export Plug-In . SVG Version: 6.00 Build 0)  -->
<svg version="1.1" id="Layer_1" xmlns="http://www.w3.org/2000/svg" xmlns:xlink="http://www.w3.org/1999/xlink" x="0px" y="0px"
	 viewBox="0 0 128 128" style="enable-background:new 0 0 128 128;" xml:space="preserve">
<style type="text/css">
	.st0{fill-rule:evenodd;clip-rule:evenodd;}
</style>
<path class="st0" d="M64.05,0C28.63,0,0,28.84,0,64.53c0,28.52,18.35,52.67,43.8,61.22c3.18,0.64,4.35-1.39,4.35-3.1
	c0-1.5-0.1-6.62-0.1-11.97c-17.82,3.85-21.53-7.69-21.53-7.69c-2.86-7.48-7.11-9.4-7.11-9.4c-5.83-3.95,0.42-3.95,0.42-3.95
	c6.47,0.43,9.86,6.62,9.86,6.62c5.73,9.83,14.95,7.05,18.66,5.34c0.53-4.17,2.23-7.05,4.03-8.65c-14.21-1.5-29.16-7.05-29.16-31.84
	c0-7.05,2.54-12.82,6.57-17.31c-0.64-1.6-2.86-8.23,0.64-17.09c0,0,5.41-1.71,17.6,6.62c5.22-1.41,10.61-2.13,16.01-2.14
	c5.41,0,10.92,0.75,16.01,2.14c12.2-8.33,17.6-6.62,17.6-6.62c3.5,8.87,1.27,15.49,0.64,17.09c4.14,4.49,6.58,10.26,6.58,17.31
	c0,24.79-14.95,30.23-29.27,31.84c2.33,2.03,4.35,5.88,4.35,11.97c0,8.65-0.1,15.6-0.1,17.73c0,1.71,1.17,3.74,4.35,3.1
	c25.45-8.55,43.8-32.69,43.8-61.22C128.1,28.84,99.37,0,64.05,0z"/>
</svg>
