<?xml version="1.0" encoding="utf-8"?>
<!-- Generator: Adobe Illustrator 27.9.0, SVG Export Plug-In . SVG Version: 6.00 Build 0)  -->
<svg version="1.1" id="Layer_1" xmlns="http://www.w3.org/2000/svg" xmlns:xlink="http://www.w3.org/1999/xlink" x="0px" y="0px"
	 viewBox="0 0 98 96" style="enable-background:new 0 0 98 96;" xml:space="preserve">
<g>
	<path d="M3.4,85.2C3.4,91.1,8.3,96,14.2,96h30.3V44.9H3.4V85.2z"/>
	<path d="M86.6,19.4H76.3c0.7-0.3,1.3-0.6,1.9-0.9c2.9-1.7,4.4-4.3,4.4-7.3C82.6,5.3,76.3,0,69.4,0C59.4,0,52.8,6.2,49,10.8
		C45.2,6.2,38.6,0,28.6,0c-6.9,0-13.3,5.3-13.3,11.2c0,3,1.6,5.6,4.4,7.3c0.6,0.3,1.2,0.6,1.9,0.9H11.4C5.1,19.4,0,24.5,0,30.8v9.1
		c0,1.2,1,2.3,2.3,2.3h9.1h33.1V20.3c0.3,0,0.7-0.1,1-0.1c1.4-0.2,2.5-0.5,3.5-0.9c1,0.4,2.1,0.7,3.5,0.9c0.3,0,0.6,0.1,1,0.1v21.9
		h33.1h9.1c1.2,0,2.3-1,2.3-2.3v-9.1C98,24.5,92.9,19.4,86.6,19.4z M30.8,13.7c-4.4,0-6.5-0.8-7.3-1.3c-0.9-0.6-0.9-1-0.9-1.1
		c0-1.4,2.5-4.1,6.1-4.1c5.6,0,9.7,2.8,13.1,6.2C39.4,13.6,36,13.7,30.8,13.7z M74.5,12.4c-0.8,0.5-2.9,1.3-7.3,1.3
		c-5.1,0-8.6-0.1-10.9-0.3c3.3-3.4,7.5-6.2,13.1-6.2c3.6,0,6.1,2.6,6.1,4.1C75.5,11.4,75.5,11.8,74.5,12.4z"/>
	<path d="M53.5,96h30.3c5.9,0,10.8-4.9,10.8-10.8V44.9H53.5V96z"/>
</g>
</svg>
