<?xml version="1.0" encoding="utf-8"?>
<!-- Generator: Adobe Illustrator 27.8.1, SVG Export Plug-In . SVG Version: 6.00 Build 0)  -->
<svg version="1.1" id="Layer_1" xmlns="http://www.w3.org/2000/svg" xmlns:xlink="http://www.w3.org/1999/xlink" x="0px" y="0px"
	 viewBox="0 0 283.5 283.5" style="enable-background:new 0 0 283.5 283.5;" xml:space="preserve">
<style type="text/css">
	.st0{fill:#FFFFFF;}
	.st1{fill:#E60012;}
</style>
<path class="st0" d="M167.2,283.5h43.7c40.1,0,72.7-32.5,72.7-72.7V72.7C283.5,32.5,251,0,210.8,0h-43.9c-1.1,0-1.8,0.9-1.8,1.8
	v279.7C165.2,282.6,166,283.5,167.2,283.5z M134.6,0h-62C32.5,0,0,32.5,0,72.7v138.2c0,40.1,32.5,72.7,72.7,72.7h62c1.1,0,2-0.9,2-2
	V2C136.6,0.9,135.7,0,134.6,0z"/>
<path class="st1" d="M167.2,283.5h43.7c40.1,0,72.7-32.5,72.7-72.7V72.7C283.5,32.5,251,0,210.8,0h-43.9c-1.1,0-1.8,0.9-1.8,1.8
	v279.7C165.2,282.6,166,283.5,167.2,283.5z M221.1,127.3c15.8,0,28.8,12.9,28.8,28.8s-12.9,28.8-28.8,28.8s-28.8-12.9-28.8-28.8
	C192.6,140.2,205.3,127.3,221.1,127.3z M44.1,85.1c0,14.7,12,26.7,26.7,26.7s26.7-12,26.7-26.7s-12-26.7-26.7-26.7
	C55.9,58.4,44.1,70.2,44.1,85.1z M134.6,0h-62C32.5,0,0,32.5,0,72.7v138.2c0,40.1,32.5,72.7,72.7,72.7h62c1.1,0,2-0.9,2-2V2
	C136.6,0.9,135.7,0,134.6,0z M113.9,260.8H72.7c-13.4,0-25.9-5.1-35.2-14.7c-9.4-9.4-14.7-21.8-14.7-35.2V72.7
	c0-13.4,5.1-25.9,14.7-35.2c9.4-9.4,21.8-14.7,35.2-14.7h41.2V260.8z"/>
</svg>
