<?xml version="1.0" encoding="utf-8"?>
<!-- Generator: Adobe Illustrator 27.8.1, SVG Export Plug-In . SVG Version: 6.00 Build 0)  -->
<svg version="1.1" id="Layer_1" xmlns="http://www.w3.org/2000/svg" xmlns:xlink="http://www.w3.org/1999/xlink" x="0px" y="0px"
	 viewBox="0 0 128 128" style="enable-background:new 0 0 128 128;" xml:space="preserve">
<path d="M64.18,0C28.47,0,0,28.35,0,64.19C0,100.02,27.5,128,63.21,128c11.57,0,12.2-9.73,10.89-13.83c-1.3-4.1-7.32-7.57-4.2-14.23
	c3.12-6.66,6.94-7.43,14.57-6.96C116.71,94.93,128,71.72,128,58.81C128,22.98,97.74,0,64.18,0z M25.2,64.73
	c-6.05,0-10.95-4.9-10.95-10.95s4.9-10.95,10.95-10.95s10.95,4.9,10.95,10.95S31.24,64.73,25.2,64.73z M46.19,35.98
	c-6.05,0-10.95-4.9-10.95-10.95c0-6.05,4.9-10.95,10.95-10.95s10.95,4.9,10.95,10.95C57.14,31.07,52.24,35.98,46.19,35.98z
	 M81.71,35.98c-6.05,0-10.95-4.9-10.95-10.95c0-6.05,4.9-10.95,10.95-10.95s10.95,4.9,10.95,10.95
	C92.66,31.07,87.75,35.98,81.71,35.98z M103.05,64.43c-6.05,0-10.95-4.9-10.95-10.95s4.9-10.95,10.95-10.95S114,47.43,114,53.48
	S109.1,64.43,103.05,64.43z"/>
</svg>
