<?xml version="1.0" encoding="UTF-8"?>
<svg version="1.1" viewBox="0 0 128 128" xmlns="http://www.w3.org/2000/svg">
<path d="m41.18 95.7 22.82-22.82 22.82 22.82 8.88-8.88-22.82-22.82 22.82-22.82-8.88-8.88-22.82 22.82-22.82-22.82-8.88 8.88 22.82 22.82-22.82 22.82 8.88 8.88zm22.82 31.7c-8.77 0-17.01-1.66-24.73-4.99s-14.42-7.85-20.13-13.55c-5.71-5.71-10.22-12.42-13.55-20.13s-4.99-15.96-4.99-24.73 1.66-17.01 4.99-24.73c3.33-7.71 7.85-14.42 13.55-20.13s12.42-10.22 20.13-13.55 15.96-4.99 24.73-4.99 17.01 1.66 24.73 4.99c7.71 3.33 14.42 7.85 20.13 13.55 5.71 5.71 10.22 12.42 13.55 20.13s4.99 15.96 4.99 24.73-1.66 17.01-4.99 24.73c-3.33 7.71-7.85 14.42-13.55 20.13-5.71 5.71-12.42 10.22-20.13 13.55s-15.96 4.99-24.73 4.99z"/>
</svg>