<?xml version="1.0" encoding="UTF-8"?>
<svg version="1.1" viewBox="0 0 128 128" xmlns="http://www.w3.org/2000/svg">
<path d="M55.12,93.16l44.7-44.7-8.88-8.88-35.82,35.82-18.07-18.07-8.88,8.88,26.95,26.95ZM64,127.4c-8.77,0-17.01-1.66-24.73-4.99-7.71-3.33-14.42-7.85-20.13-13.55-5.71-5.71-10.22-12.42-13.55-20.13S.6,72.77.6,64s1.66-17.01,4.99-24.73,7.85-14.42,13.55-20.13,12.42-10.22,20.13-13.55S55.23.6,64,.6s17.01,1.66,24.73,4.99,14.42,7.85,20.13,13.55,10.22,12.42,13.55,20.13,4.99,15.96,4.99,24.73-1.66,17.01-4.99,24.73-7.85,14.42-13.55,20.13-12.42,10.22-20.13,13.55c-7.71,3.33-15.96,4.99-24.73,4.99Z"/>
</svg>