<?xml version="1.0" encoding="UTF-8"?><svg enable-background="new 0 0 128 128" version="1.1" viewBox="0 0 128 128" xml:space="preserve" xmlns="http://www.w3.org/2000/svg"><path d="m127.4 70.7c0-22.2-16-40.8-37-44.8 5 8 7.9 17.4 7.9 27.5 0 26.8-20.4 49-46.5 51.7 8 7 18.5 11.3 30 11.3 5 0 9.9-0.8 14.7-2.5l16.9 6.2c0.4 0.1 0.7 0.2 1.1 0.2 0.7 0 1.3-0.2 1.9-0.6 0.9-0.6 1.3-1.7 1.3-2.8l-1.2-16.6c7-8.3 10.9-18.7 10.9-29.6z"/><path d="m46.3 7.7c-25.2 0-45.7 20.5-45.7 45.7 0 11.1 4 21.7 11.4 30.1l-1.3 18.5c-0.1 1.1 0.4 2.1 1.3 2.8 0.6 0.4 1.2 0.6 1.9 0.6 0.4 0 0.8-0.1 1.1-0.2l19.6-7.6c3.8 1 7.8 1.5 11.7 1.5 25.2 0 45.7-20.5 45.7-45.7s-20.5-45.7-45.7-45.7zm-1.3 65.8c-1.7 0-3.2-1.4-3.2-3.2 0-1.7 1.4-3.2 3.2-3.2 1.7 0 3.2 1.4 3.2 3.2s-1.5 3.2-3.2 3.2zm6-18c-1.7 0.9-2.8 3-2.8 5.3 0 1.7-1.4 3.2-3.2 3.2s-3.2-1.4-3.2-3.2c0-4.6 2.3-8.8 6.1-10.8 2.3-1.3 3.5-3.8 3-6.4-0.4-2.4-2.4-4.4-4.8-4.8-1.8-0.3-3.6 0.1-5 1.3s-2.2 2.8-2.2 4.6c0 1.7-1.4 3.2-3.2 3.2s-3.2-1.4-3.2-3.2c0-3.7 1.6-7.1 4.4-9.5s6.5-3.3 10.2-2.7c5 0.9 9.1 5 10 10 1 5.2-1.5 10.5-6.1 13z"/></svg>