<?xml version="1.0" encoding="UTF-8"?>
<svg version="1.1" viewBox="0 0 128 128" xmlns="http://www.w3.org/2000/svg">
<path d="m85.87 70.93-7.73-7.73c0.8-4.18-0.4-8.09-3.6-11.73s-7.33-5.07-12.4-4.27l-7.73-7.73c1.51-0.71 3.04-1.24 4.6-1.6s3.22-0.53 5-0.53c6.67 0 12.33 2.33 17 7s7 10.33 7 17c0 1.78-0.18 3.44-0.53 5s-0.89 3.09-1.6 4.6zm17.06 16.8-7.73-7.47c3.38-2.58 6.38-5.4 9-8.47s4.87-6.56 6.73-10.47c-4.44-8.98-10.82-16.11-19.13-21.4s-17.58-7.93-27.8-7.93c-2.58 0-5.11 0.18-7.6 0.53s-4.93 0.89-7.33 1.6l-8.27-8.27c3.64-1.51 7.38-2.64 11.2-3.4s7.82-1.13 12-1.13c13.42 0 25.38 3.71 35.87 11.13s18.09 17.04 22.8 28.87c-2.04 5.24-4.73 10.11-8.07 14.6s-7.22 8.42-11.67 11.8zm2.67 32.8-22.4-22.13c-3.11 0.98-6.24 1.71-9.4 2.2s-6.42 0.73-9.8 0.73c-13.42 0-25.38-3.71-35.87-11.13s-18.09-17.04-22.8-28.87c1.87-4.71 4.22-9.09 7.07-13.13s6.09-7.67 9.73-10.87l-14.67-14.93 7.47-7.47 98.13 98.13-7.47 7.47zm-76-75.73c-2.58 2.31-4.93 4.84-7.07 7.6s-3.96 5.73-5.47 8.93c4.44 8.98 10.82 16.11 19.13 21.4s17.58 7.93 27.8 7.93c1.78 0 3.51-0.11 5.2-0.33s3.42-0.47 5.2-0.73l-4.8-5.07c-0.98 0.27-1.91 0.47-2.8 0.6s-1.82 0.2-2.8 0.2c-6.67 0-12.33-2.33-17-7s-7-10.33-7-17c0-0.98 0.07-1.91 0.2-2.8s0.33-1.82 0.6-2.8l-11.2-10.93z"/>
</svg>