<?xml version="1.0" encoding="UTF-8"?><svg enable-background="new 0 0 128 128" version="1.1" viewBox="0 0 128 128" xml:space="preserve" xmlns="http://www.w3.org/2000/svg"><style type="text/css">	.st0{fill-rule:evenodd;clip-rule:evenodd;}</style><path class="st0" d="m127.4 64c0 35-28.4 63.4-63.4 63.4s-63.4-28.4-63.4-63.4 28.4-63.4 63.4-63.4 63.4 28.4 63.4 63.4zm-47-34.8c0 5.5-4.5 9.8-9.8 9.8-5.5 0-9.8-4.4-9.8-9.8s4.4-9.8 9.8-9.8c5.4 0.1 9.8 4.5 9.8 9.8zm-29.5 23.6 21.6-3.1c1.1-0.2 2.1 0.9 1.7 2l-12.7 43.6c-0.5 3 6.7-1.1 11.7-4.3 1.3-0.8 2.9 0.4 2.1 1.9-4 6.9-12.2 18.4-22.1 14.9-10-3.5-7.5-11.6-4.4-21.2 0.5-1.4 1-3.1 1.4-4.6 1.1-3.8 2.4-7.8 3.7-11.2 2.4-6.9 4.4-12 1.6-11.3-3.1 0.8-6.8-2.1-5.7-5.8 0.1-0.5 0.7-0.8 1.1-0.9z"/></svg>