<?xml version="1.0" encoding="UTF-8"?><svg enable-background="new 0 0 128 128" version="1.1" viewBox="0 0 128 128" xml:space="preserve" xmlns="http://www.w3.org/2000/svg"><path d="m73.3 88.6c-9.1 0-17.6-3.5-24.1-10-3-3-3-7.7 0-10.6 3-3 7.7-3 10.6 0 3.5 3.5 8.4 5.5 13.4 5.5s9.8-2 13.4-5.5l20-20c7.5-7.5 7.5-19.4 0-26.8s-19.4-7.5-26.8 0l-8.7 8.7c-3 3-7.7 3-10.6 0-3-3-3-7.7 0-10.6l8.6-8.6c13.3-13.3 34.9-13.3 48.1 0s13.3 34.9 0 48.1l-19.9 19.8c-6.4 6.5-14.9 10-24 10z"/><path d="m34.7 127.4c-9.1 0-17.6-3.5-24.1-10-13.3-13.3-13.3-34.9 0-48.1l20-20c13.4-13.3 34.9-13.3 48.1 0 3 3 3 7.7 0 10.6-3 3-7.7 3-10.6 0-7.5-7.5-19.4-7.5-26.8 0l-20.1 20c-7.5 7.5-7.5 19.4 0 26.8 3.5 3.5 8.4 5.5 13.4 5.5s9.8-2 13.3-5.5l8.6-8.6c3-3 7.7-3 10.6 0 3 3 3 7.7 0 10.6l-8.6 8.6c-6.2 6.5-14.8 9.9-23.8 10.1z"/></svg>