<?xml version="1.0" encoding="UTF-8"?><svg enable-background="new 0 0 128 128" version="1.1" viewBox="0 0 128 128" xml:space="preserve" xmlns="http://www.w3.org/2000/svg"><style type="text/css">	.st0{fill-rule:evenodd;clip-rule:evenodd;}</style><path class="st0" d="m41.9 43.8 9.3 9.3c0.1 0.1 0.1 0.3 0 0.4l-14 14c-0.1 0.1-0.3 0.1-0.4 0l-9.5-9.3c-0.1-0.1-0.2-0.1-0.3-0.1-7 2-15 0.2-20.5-5.4-5.8-5.9-7.5-14.6-4.7-22 0-0.1 0.1-0.1 0.2-0.2 0.1 0 0.2 0 0.2 0.1l14.5 14.4c0.1 0.1 0.3 0.1 0.4 0l11.6-11.5c0.1-0.1 0.1-0.3 0-0.4l-14.3-14.4c-0.1-0.1-0.1-0.2-0.1-0.2 0-0.1 0.1-0.2 0.2-0.2 7.5-2.6 16.2-1.1 22.1 4.8 5.5 5.5 7.4 13.4 5.4 20.5-0.2 0-0.2 0.2-0.1 0.2zm27.3 3.7c-1.7-1.7-4.5-1.7-6.3 0l-56.3 56.4c-1.7 1.7-1.7 4.5 0 6.3l8.1 8.1c1.7 1.7 4.5 1.7 6.3 0l56.3-56.3c1.7-1.6 1.7-4.5 0-6.3 0 0.1-8.1-8.2-8.1-8.2zm13 8 8.8-5.7c0.1-0.1 0.2-0.1 0.3 0l8.6 8.2c0.1 0.1 0.1 0.2 0.1 0.3l-2.5 8.8c0 0.1 0 0.2 0.1 0.3l5.6 5.6c1.7 1.7 4.4 1.7 6.2 0l16.8-16.8c1.7-1.7 1.7-4.4 0-6.2l-6.3-6.3s-2.5 1-7.7 2.9c-0.1 0-0.2 0-0.3-0.1-16.2-25.5-36.3-38.7-60.8-39.4-0.1 0-0.2 0.1-0.3 0.2 0 0.1 0 0.2 0.1 0.3 12 6.5 19.5 16.6 25.2 26.9 0.1 0.1 0 0.2 0 0.3l-6.2 8c0 0.1-0.1 0.1 0 0.2 0 0.1 0.1 0.1 0.1 0.2 0.7 0.4 1.3 0.9 1.9 1.4l8.1 8.1c0.7 0.7 1.3 1.5 1.7 2.4 0 0.1 0.1 0.1 0.2 0.1 0 0.3 0.2 0.3 0.3 0.3zm-10.6 18 30.4 30.4c1.7 1.6 1.7 4.5 0 6.3l-8.1 8.1c-1.7 1.7-4.5 1.7-6.3 0l-30.4-30.4c-0.1-0.1-0.1-0.3 0-0.4l14-14h0.4z"/></svg>