<?xml version="1.0" encoding="UTF-8"?><svg enable-background="new 0 0 128 128" version="1.1" viewBox="0 0 128 128" xml:space="preserve" xmlns="http://www.w3.org/2000/svg"><path d="m109.1 112.7v-108.8h-85v5.4h74.7c1.8 0 3.2 1.4 3.2 3.2v100.3c0 3.2 1.3 5.9 3.4 8s4.9 3.4 8 3.4c1.5 0 2.9-0.3 4.3-0.8-2-0.5-3.6-1.4-5.1-2.9-2.2-2.1-3.5-4.8-3.5-7.8z"/><path d="m98.8 122.7-0.1-0.2-0.8-1.3-0.9-1.8-0.4-1.4-0.1-0.2-0.4-1.4v-0.4l-0.2-1.5v-0.2l-0.1-1.5v-97.2h-85.3v97c0 3.2 1.3 5.9 3.4 8s5 3.4 8 3.4l77.8 0.1-0.1-0.1c0 0.1-0.8-1.3-0.8-1.3zm-50.5-11.9h-28c-1.8 0-3.2-1.4-3.2-3.2s1.4-3.2 3.2-3.2h27.9c1.8 0 3.2 1.4 3.2 3.2 0.1 1.7-1.5 3.2-3.1 3.2zm0-13.2h-28c-1.8 0-3.2-1.4-3.2-3.2s1.4-3.2 3.2-3.2h27.9c1.8 0 3.2 1.4 3.2 3.2 0.1 1.7-1.5 3.2-3.1 3.2zm0-13.3h-28c-1.8 0-3.2-1.4-3.2-3.2s1.4-3.2 3.2-3.2h27.9c1.8 0 3.2 1.4 3.2 3.2 0.1 1.8-1.5 3.2-3.1 3.2zm0-13.1h-28c-1.8 0-3.2-1.4-3.2-3.2s1.4-3.2 3.2-3.2h27.9c1.8 0 3.2 1.4 3.2 3.2 0.1 1.7-1.5 3.2-3.1 3.2zm37.5 39.6h-28c-1.8 0-3.2-1.4-3.2-3.2s1.4-3.2 3.2-3.2h27.9c1.8 0 3.2 1.4 3.2 3.2 0.1 1.7-1.5 3.2-3.1 3.2zm0-13.2h-28c-1.8 0-3.2-1.4-3.2-3.2s1.4-3.2 3.2-3.2h27.9c1.8 0 3.2 1.4 3.2 3.2 0.1 1.7-1.5 3.2-3.1 3.2zm0-13.3h-28c-1.8 0-3.2-1.4-3.2-3.2s1.4-3.2 3.2-3.2h27.9c1.8 0 3.2 1.4 3.2 3.2 0.1 1.8-1.5 3.2-3.1 3.2zm0-13.1h-28c-1.8 0-3.2-1.4-3.2-3.2s1.4-3.2 3.2-3.2h27.9c1.8 0 3.2 1.4 3.2 3.2 0.1 1.7-1.5 3.2-3.1 3.2zm3.2-16.4c0 1.8-1.4 3.2-3.2 3.2h-65.5c-1.8 0-3.2-1.4-3.2-3.2v-28c0-1.8 1.4-3.2 3.2-3.2h65.5c1.8 0 3.2 1.4 3.2 3.2v28z"/></svg>