<?xml version="1.0" encoding="UTF-8"?>
<svg version="1.1" viewBox="0 0 128 128" xmlns="http://www.w3.org/2000/svg">
<path d="m81 78.33c4.67-4.67 7-10.33 7-17s-2.33-12.33-7-17-10.33-7-17-7-12.33 2.33-17 7-7 10.33-7 17 2.33 12.33 7 17 10.33 7 17 7 12.33-2.33 17-7zm-27.2-6.8c-2.8-2.8-4.2-6.2-4.2-10.2s1.4-7.4 4.2-10.2 6.2-4.2 10.2-4.2 7.4 1.4 10.2 4.2 4.2 6.2 4.2 10.2-1.4 7.4-4.2 10.2-6.2 4.2-10.2 4.2-7.4-1.4-10.2-4.2zm-25.27 18.94c-10.67-7.24-18.4-16.96-23.2-29.13 4.8-12.18 12.53-21.89 23.2-29.13s22.49-10.87 35.47-10.87 24.8 3.62 35.47 10.87c10.67 7.24 18.4 16.96 23.2 29.13-4.8 12.18-12.53 21.89-23.2 29.13s-22.49 10.87-35.47 10.87-24.8-3.62-35.47-10.87zm63.14-7.74c8.4-5.29 14.82-12.42 19.27-21.4-4.44-8.98-10.87-16.11-19.27-21.4s-17.62-7.93-27.67-7.93-19.27 2.64-27.67 7.93-14.82 12.42-19.27 21.4c4.44 8.98 10.87 16.11 19.27 21.4s17.62 7.93 27.67 7.93 19.27-2.64 27.67-7.93z"/>
</svg>