<?xml version="1.0" encoding="UTF-8"?>
<svg version="1.1" viewBox="0 0 128 128" xmlns="http://www.w3.org/2000/svg">
<path d="m38.64 99.22 25.36-25.36 25.36 25.36 9.86-9.86-25.36-25.36 25.36-25.36-9.86-9.86-25.36 25.36-25.36-25.36-9.86 9.86 25.36 25.36-25.36 25.36 9.86 9.86zm-23.95 28.18c-3.87 0-7.19-1.38-9.95-4.14s-4.14-6.08-4.14-9.95v-98.62c0-3.87 1.38-7.19 4.14-9.95s6.07-4.14 9.95-4.14h98.62c3.87 0 7.19 1.38 9.95 4.14s4.14 6.08 4.14 9.95v98.62c0 3.87-1.38 7.19-4.14 9.95s-6.08 4.14-9.95 4.14h-98.62z"/>
</svg>